<svg width="24" height="24" viewBox="0 0 24 24" fill="none" xmlns="http://www.w3.org/2000/svg">
<path d="M6.54547 19.0041V11.2767L4.14899 9.08432L2 7.86768V17.6404C2 18.3949 2.61133 19.0041 3.36367 19.0041H6.54547Z" fill="#4285F4"/>
<path d="M17.4546 19.004H20.6364C21.391 19.004 22.0001 18.3926 22.0001 17.6403V7.86768L19.566 9.26119L17.4546 11.2767V19.004Z" fill="#34A853"/>
<path d="M6.54552 11.2767L6.21942 8.25744L6.54552 5.36768L12 9.45861L17.4546 5.36768L17.8193 8.10143L17.4546 11.2767L12 15.3677L6.54552 11.2767Z" fill="#EA4335"/>
<path d="M17.4546 5.36748V11.2765L22.0001 7.86748V6.04927C22.0001 4.36294 20.0751 3.40162 18.7274 4.41294L17.4546 5.36748Z" fill="#FBBC04"/>
<path d="M2 7.86751L4.09055 9.43548L6.54547 11.2766V5.36751L5.27266 4.41298C3.92266 3.40157 2 4.36298 2 6.04923V7.86744V7.86751Z" fill="#C5221F"/>
</svg>
