<svg width="50" height="50" viewBox="0 0 50 50" fill="none" xmlns="http://www.w3.org/2000/svg">
<path d="M23.5687 6.29929C18.7867 6.78336 14.6061 9.6291 12.4645 13.8464C11.555 15.6359 11.1003 17.3522 10.9536 19.5012C10.7483 22.4716 12.5012 27.0336 16.4324 33.7299C18.3833 37.0523 21.6911 42.091 22.3366 42.7291C23.1287 43.5066 24.3389 43.888 25.4243 43.7046C26.0624 43.6019 26.8179 43.2425 27.3019 42.8171C27.786 42.3917 30.5364 38.2698 32.4433 35.116C35.6778 29.7766 37.6727 25.574 38.4135 22.5743C38.8169 20.9314 38.8609 19.8826 38.5969 18.071C37.8194 12.6655 33.7269 8.10355 28.4094 6.71735C26.8986 6.32129 24.9916 6.15993 23.5687 6.29929ZM26.2825 13.4796C28.9595 14.0297 31.1305 16.2007 31.6806 18.8777C32.4653 22.6623 30.0303 26.3661 26.2458 27.1436C25.3363 27.3343 23.9281 27.2976 23.0553 27.0556C20.5176 26.3661 18.5447 24.2832 18.024 21.7381C17.2172 17.8216 19.8282 14.0517 23.8254 13.3916C24.3462 13.3036 25.6664 13.355 26.2825 13.4796Z" fill="#ED1B24"/>
</svg>
