<svg width="50" height="50" viewBox="0 0 50 50" fill="none" xmlns="http://www.w3.org/2000/svg">
<path d="M27.1582 7.71484C26.2207 7.96875 25.5078 8.30078 24.7656 8.82812C24.4434 9.0625 20.5859 12.8613 16.2012 17.2559C8.91602 24.5508 8.20312 25.3027 7.91992 25.8789C7.49023 26.7676 7.32422 27.4512 7.32422 28.3691C7.32422 29.3359 7.50977 30.0879 7.97852 30.9961C8.30078 31.6211 8.80859 32.168 13.3203 36.6797C17.8418 41.2012 18.3789 41.6992 19.0039 42.0215C19.9121 42.4902 20.6641 42.6758 21.6309 42.6758C22.5391 42.6758 23.2324 42.5098 24.1211 42.0801C24.707 41.7969 25.4297 41.0938 32.959 33.5547C41.8652 24.6484 41.6309 24.9121 42.1484 23.291C42.5195 22.1484 42.5293 21.2988 42.2461 16.9922C41.9531 12.7051 41.8555 12.0117 41.3867 11.0645C40.9375 10.1367 39.8242 9.02344 38.9355 8.60352C37.9687 8.14453 37.2656 8.03711 33.1055 7.76367C28.6816 7.4707 28.1152 7.4707 27.1582 7.71484ZM36.7773 12.4609C37.0703 12.6367 37.3633 12.9297 37.5488 13.2227C37.8027 13.6426 37.8418 13.7988 37.8418 14.4043C37.8418 15.0098 37.8027 15.166 37.5488 15.5859C37.3633 15.8789 37.0703 16.1719 36.7773 16.3574C36.3574 16.6113 36.2012 16.6504 35.5957 16.6504C34.9902 16.6504 34.834 16.6113 34.4141 16.3574C33.7988 15.9668 33.3789 15.3125 33.3203 14.6094C33.1641 12.7344 35.1855 11.4746 36.7773 12.4609Z" fill="#ED1B24"/>
</svg>
