<svg width="24" height="24" viewBox="0 0 24 24" fill="none" xmlns="http://www.w3.org/2000/svg">
<path d="M1.09169 11.9009C1.09116 13.8219 1.59537 15.6977 2.55413 17.351L1 23L6.80701 21.4842C8.41315 22.3547 10.2127 22.8108 12.0414 22.8109H12.0462C18.0832 22.8109 22.9974 17.9204 23 11.9095C23.0012 8.99673 21.8628 6.25777 19.7944 4.19713C17.7265 2.13667 14.9762 1.00133 12.0458 1C6.00814 1 1.09427 5.89017 1.09178 11.9009" fill="url(#paint0_linear_35_1801)"/>
<path d="M1.09195 11.901C1.09135 13.8223 1.59555 15.6979 2.55409 17.3511L1 23L6.80688 21.4842C8.40687 22.3527 10.2083 22.8106 12.0413 22.8113H12.0461C18.083 22.8113 22.9974 17.9203 23 11.9097C23.001 8.99675 21.8625 6.25756 19.7945 4.19699C17.7263 2.13667 14.9763 1.0012 12.0461 1C6.00809 1 1.09436 5.89028 1.09195 11.901ZM4.55008 17.0664L4.33326 16.7237C3.4218 15.281 2.94073 13.6137 2.94141 11.9017C2.94339 6.90572 7.02748 2.84113 12.0495 2.84113C14.4815 2.84215 16.7671 3.78599 18.4862 5.49844C20.2052 7.21106 21.1511 9.48766 21.1505 11.909C21.1483 16.9049 17.0641 20.9701 12.0461 20.9701H12.0425C10.4085 20.9692 8.80605 20.5324 7.40853 19.7068L7.07595 19.5105L3.63003 20.4099L4.55008 17.0663V17.0664Z" fill="url(#paint1_linear_35_1801)"/>
<path d="M9.54236 7.46455C9.35804 7.02283 9.16406 7.01392 8.98877 7.00617C8.84524 6.99951 8.68116 7.00001 8.51723 7.00001C8.35314 7.00001 8.08655 7.06656 7.8612 7.33186C7.63563 7.59741 7 8.23912 7 9.54429C7 10.8495 7.88168 12.1109 8.00458 12.2881C8.12765 12.4649 9.70668 15.229 12.2075 16.2924C14.2859 17.176 14.7088 17.0003 15.1599 16.956C15.611 16.9118 16.6156 16.3144 16.8206 15.695C17.0257 15.0756 17.0257 14.5446 16.9642 14.4337C16.9027 14.3232 16.7386 14.2568 16.4926 14.1242C16.2464 13.9915 15.0368 13.3497 14.8113 13.2611C14.5858 13.1727 14.4217 13.1285 14.2577 13.3942C14.0936 13.6594 13.6224 14.2568 13.4788 14.4337C13.3354 14.611 13.1917 14.6331 12.9458 14.5004C12.6996 14.3673 11.9072 14.0875 10.9671 13.1838C10.2357 12.4806 9.7419 11.6123 9.59837 11.3467C9.45483 11.0814 9.583 10.9377 9.70637 10.8055C9.81691 10.6866 9.95249 10.4957 10.0756 10.3409C10.1983 10.1859 10.2393 10.0754 10.3213 9.89846C10.4034 9.72138 10.3623 9.56645 10.3009 9.43376C10.2393 9.30106 9.76114 7.98907 9.54236 7.46455Z" fill="white"/>
<defs>
<linearGradient id="paint0_linear_35_1801" x1="1101" y1="2201" x2="1101" y2="1" gradientUnits="userSpaceOnUse">
<stop stop-color="#1FAF38"/>
<stop offset="1" stop-color="#60D669"/>
</linearGradient>
<linearGradient id="paint1_linear_35_1801" x1="1101" y1="2201" x2="1101" y2="1" gradientUnits="userSpaceOnUse">
<stop stop-color="#F9F9F9"/>
<stop offset="1" stop-color="white"/>
</linearGradient>
</defs>
</svg>
